<svg xmlns="http://www.w3.org/2000/svg" viewBox="0 0 296 145.66"><defs><style>.cls-1{fill:#fff;}.cls-2{fill:#4cb8e1;}</style></defs><g id="Camada_2" data-name="Camada 2"><g id="Camada_1-2" data-name="Camada 1"><path class="cls-1" d="M150.42,106.13a30,30,0,0,1-8.2-1.1,12.49,12.49,0,0,1-5.18-2.89,10.16,10.16,0,0,1-2.7-4.67,23.74,23.74,0,0,1-.78-6.37V45.3l11.08-11.18V89a14.83,14.83,0,0,0,.33,3.39,5.36,5.36,0,0,0,1.14,2.33,5.2,5.2,0,0,0,2.25,1.47A17.61,17.61,0,0,0,152,97Z"/><path class="cls-1" d="M176.9,56.1a27,27,0,0,1,9.25,1.38,14.76,14.76,0,0,1,6,3.85,14.38,14.38,0,0,1,3.21,6,29.4,29.4,0,0,1,1,7.74v29q-2.56.56-7.74,1.33a79,79,0,0,1-11.68.78,34.4,34.4,0,0,1-7.88-.83,16.4,16.4,0,0,1-6.1-2.65A12.53,12.53,0,0,1,159,98a16.58,16.58,0,0,1-1.42-7.23,14,14,0,0,1,1.61-7,13.18,13.18,0,0,1,4.35-4.62,18.82,18.82,0,0,1,6.37-2.57,35.76,35.76,0,0,1,7.56-.78,34.61,34.61,0,0,1,3.84.23,36.61,36.61,0,0,1,4.31.78V75a14.25,14.25,0,0,0-.46-3.67,7.72,7.72,0,0,0-1.6-3.07,7.58,7.58,0,0,0-3-2.06,13,13,0,0,0-4.71-.73,41.55,41.55,0,0,0-7.06.55,31.07,31.07,0,0,0-5.22,1.28l-1.38-9a43.91,43.91,0,0,1,6.14-1.46A48.05,48.05,0,0,1,176.9,56.1Zm.91,41.32a42,42,0,0,0,7.79-.54V84.6a19.88,19.88,0,0,0-2.66-.55,25.11,25.11,0,0,0-3.85-.28,26.07,26.07,0,0,0-3.71.28,11.47,11.47,0,0,0-3.39,1,6.14,6.14,0,0,0-2.42,2.06,5.67,5.67,0,0,0-.92,3.34q0,3.95,2.47,5.45A12.75,12.75,0,0,0,177.81,97.42Z"/><path class="cls-1" d="M253,81.3a30.05,30.05,0,0,1-1.69,10.4,22.45,22.45,0,0,1-4.86,7.92,20.93,20.93,0,0,1-7.65,5,28,28,0,0,1-10.17,1.74,64.37,64.37,0,0,1-10.49-.82,66.06,66.06,0,0,1-8.29-1.83V45.15l11.08-11V59a26,26,0,0,1,4.72-1.84,21.87,21.87,0,0,1,6.19-.82,21.65,21.65,0,0,1,9,1.79,17.61,17.61,0,0,1,6.65,5.08,23.54,23.54,0,0,1,4.07,7.92A34.68,34.68,0,0,1,253,81.3Zm-11.36-.18q0-7.07-2.79-11.18T230,65.82a16,16,0,0,0-5.18.82,16.19,16.19,0,0,0-3.9,1.83V96.05c.8.18,1.82.35,3.07.5a36.78,36.78,0,0,0,4.54.23,11.86,11.86,0,0,0,9.62-4.17C240.51,89.84,241.67,86,241.67,81.12Z"/><path class="cls-1" d="M276.48,97.24a14.66,14.66,0,0,0,6.42-1,3.75,3.75,0,0,0,2-3.62,4.68,4.68,0,0,0-2.15-3.94,31.3,31.3,0,0,0-7.1-3.39,53.7,53.7,0,0,1-5.54-2.34A18.68,18.68,0,0,1,265.77,80a11.7,11.7,0,0,1-2.89-4,13.93,13.93,0,0,1-1.05-5.73,12.47,12.47,0,0,1,4.85-10.39q4.86-3.81,13.2-3.81a41.35,41.35,0,0,1,8.06.78,40.58,40.58,0,0,1,5.77,1.51l-2,9A27,27,0,0,0,287,65.86a28.07,28.07,0,0,0-6.59-.69,11.52,11.52,0,0,0-5.5,1.15,3.75,3.75,0,0,0-2.11,3.53,5.22,5.22,0,0,0,.41,2.11,4.61,4.61,0,0,0,1.42,1.69,14.49,14.49,0,0,0,2.66,1.56,40.74,40.74,0,0,0,4,1.6A60.8,60.8,0,0,1,288,79.7a18.19,18.19,0,0,1,4.54,3.2A11,11,0,0,1,295.18,87a16.3,16.3,0,0,1,.82,5.5q0,6.87-5.08,10.4t-14.53,3.52a39.93,39.93,0,0,1-10.17-1.05,51.54,51.54,0,0,1-5.4-1.7l1.92-9.25a50.18,50.18,0,0,0,5.91,1.93A30.51,30.51,0,0,0,276.48,97.24Z"/><path class="cls-1" d="M134.87,123.55a4.52,4.52,0,0,1,1.07-.54,4.9,4.9,0,0,1,1.75-.29,4.75,4.75,0,0,1,2,.4,4,4,0,0,1,1.45,1.11,4.64,4.64,0,0,1,.9,1.69,6.92,6.92,0,0,1,.31,2.14,6.25,6.25,0,0,1-.37,2.23,4.62,4.62,0,0,1-1,1.68,4.2,4.2,0,0,1-1.58,1.06,5.33,5.33,0,0,1-2,.37,11.79,11.79,0,0,1-2.26-.18,10.41,10.41,0,0,1-1.46-.38V118.06l1.29-.24Zm0,8.4a5.07,5.07,0,0,0,.88.19,10.27,10.27,0,0,0,1.53.09,3.47,3.47,0,0,0,2.66-1.08,4.31,4.31,0,0,0,1-3.09,7,7,0,0,0-.18-1.61,3.55,3.55,0,0,0-.57-1.33,2.82,2.82,0,0,0-1-.89,3.28,3.28,0,0,0-1.59-.34,4.14,4.14,0,0,0-.87.09,4.6,4.6,0,0,0-.77.23,5.16,5.16,0,0,0-.62.29,4.09,4.09,0,0,0-.44.3Z"/><path class="cls-1" d="M147.89,133.38c-.43-.81-.85-1.65-1.25-2.52s-.78-1.74-1.13-2.63-.67-1.78-1-2.67-.54-1.76-.75-2.62h1.36c.15.63.33,1.32.56,2s.47,1.48.75,2.26.6,1.58.94,2.39.72,1.62,1.12,2.41c.3-.81.56-1.58.78-2.3s.44-1.45.63-2.17.38-1.45.56-2.2.36-1.56.55-2.44h1.29q-.65,2.86-1.45,5.58a46.68,46.68,0,0,1-1.75,5,10.84,10.84,0,0,1-.78,1.53,4,4,0,0,1-.88,1.05,3,3,0,0,1-1.13.62,5.28,5.28,0,0,1-1.52.2,3.16,3.16,0,0,1-.9-.12,3.12,3.12,0,0,1-.51-.18l.26-1.07a1.65,1.65,0,0,0,.45.17,2.68,2.68,0,0,0,.76.11,3.86,3.86,0,0,0,1-.12,2,2,0,0,0,.8-.41,3,3,0,0,0,.65-.74A6.77,6.77,0,0,0,147.89,133.38Z"/><path class="cls-1" d="M159.06,133.16v-13.7H167v1.17H160.4v4.76h5.85v1.15H160.4V132h7.08v1.17Z"/><path class="cls-1" d="M172.54,133.34a4.57,4.57,0,0,1-1.14-.17,2,2,0,0,1-.81-.46,1.81,1.81,0,0,1-.49-.79,3.49,3.49,0,0,1-.17-1.21V118.06l1.28-.24v12.85a2.58,2.58,0,0,0,.09.76,1,1,0,0,0,.27.45,1,1,0,0,0,.46.25,6.69,6.69,0,0,0,.68.14Z"/><path class="cls-1" d="M174.37,128a6.41,6.41,0,0,1,.39-2.34,5.1,5.1,0,0,1,1-1.67,4,4,0,0,1,1.42-1,4.25,4.25,0,0,1,1.65-.32,3.83,3.83,0,0,1,3,1.22,5.46,5.46,0,0,1,1.12,3.78c0,.1,0,.21,0,.31s0,.21,0,.3h-7.17a4.5,4.5,0,0,0,.93,2.88,3.43,3.43,0,0,0,2.76,1,5.32,5.32,0,0,0,1.66-.2,6.85,6.85,0,0,0,.89-.33l.24,1.1a5.41,5.41,0,0,1-1,.38,6.35,6.35,0,0,1-1.79.22,6,6,0,0,1-2.29-.4,4.12,4.12,0,0,1-1.56-1.1,4.35,4.35,0,0,1-.89-1.69A8.11,8.11,0,0,1,174.37,128Zm7.26-.81a4.1,4.1,0,0,0-.75-2.49,2.46,2.46,0,0,0-2-.89,2.66,2.66,0,0,0-1.24.28,3.05,3.05,0,0,0-.94.74A3.43,3.43,0,0,0,176,126a4.17,4.17,0,0,0-.26,1.28Z"/><path class="cls-1" d="M188.91,131.78c.28-.57.56-1.22.85-1.95s.58-1.49.85-2.27.52-1.58.75-2.37.43-1.55.58-2.25h1.29c-.24.94-.5,1.86-.8,2.77s-.6,1.8-.92,2.67-.66,1.7-1,2.51-.7,1.56-1,2.27h-1.2c-.34-.71-.69-1.47-1-2.27s-.68-1.64-1-2.51-.63-1.76-.92-2.67-.56-1.83-.8-2.77h1.37c.16.7.35,1.45.58,2.25s.48,1.58.76,2.37.55,1.54.84,2.27S188.63,131.21,188.91,131.78Z"/><path class="cls-1" d="M194.69,128a6.41,6.41,0,0,1,.39-2.34,5.08,5.08,0,0,1,1-1.67,4,4,0,0,1,1.43-1,4.25,4.25,0,0,1,1.65-.32,3.83,3.83,0,0,1,3,1.22,5.46,5.46,0,0,1,1.12,3.78c0,.1,0,.21,0,.31s0,.21,0,.3h-7.18a4.5,4.5,0,0,0,.93,2.88,3.46,3.46,0,0,0,2.77,1,5.32,5.32,0,0,0,1.66-.2,6.85,6.85,0,0,0,.89-.33l.24,1.1a5.41,5.41,0,0,1-1,.38,6.35,6.35,0,0,1-1.79.22,6,6,0,0,1-2.29-.4,4.12,4.12,0,0,1-1.56-1.1,4.35,4.35,0,0,1-.89-1.69A7.71,7.71,0,0,1,194.69,128Zm7.25-.81a4,4,0,0,0-.75-2.49,2.42,2.42,0,0,0-2-.89,2.63,2.63,0,0,0-1.24.28,3.09,3.09,0,0,0-.95.74,3.41,3.41,0,0,0-.63,1.08,4.49,4.49,0,0,0-.27,1.28Z"/><path class="cls-1" d="M206.14,123.3c.38-.11.89-.23,1.54-.36a12.11,12.11,0,0,1,2.37-.2,5,5,0,0,1,1.95.34,2.91,2.91,0,0,1,1.24,1,3.83,3.83,0,0,1,.66,1.49,8.78,8.78,0,0,1,.2,1.92v5.71h-1.28v-5.3a9.69,9.69,0,0,0-.15-1.84,3,3,0,0,0-.5-1.22,1.88,1.88,0,0,0-.91-.68,4,4,0,0,0-1.41-.21,10.27,10.27,0,0,0-1.57.1,3.79,3.79,0,0,0-.86.18v9h-1.28Z"/><path class="cls-1" d="M222,133.16v-13.7h7.8v1.17h-6.46v4.82H229v1.17h-5.73v6.54Z"/><path class="cls-1" d="M233.75,119.86a1,1,0,0,1-.28.72.92.92,0,0,1-.67.27.9.9,0,0,1-.67-.27,1.07,1.07,0,0,1,0-1.44.9.9,0,0,1,.67-.27.92.92,0,0,1,.67.27A1,1,0,0,1,233.75,119.86Zm-.3,13.3h-1.29V122.94h1.29Z"/><path class="cls-1" d="M236.85,123.3c.38-.11.89-.23,1.54-.36a12.26,12.26,0,0,1,2.37-.2,5,5,0,0,1,2,.34,2.91,2.91,0,0,1,1.24,1,4,4,0,0,1,.67,1.49,8.8,8.8,0,0,1,.19,1.92v5.71h-1.28v-5.3a9.69,9.69,0,0,0-.15-1.84,3.09,3.09,0,0,0-.49-1.22,1.93,1.93,0,0,0-.91-.68,4.13,4.13,0,0,0-1.42-.21,10.27,10.27,0,0,0-1.57.1,3.79,3.79,0,0,0-.86.18v9h-1.28Z"/><path class="cls-1" d="M251.2,122.71a4.57,4.57,0,0,1,1.71.28,3,3,0,0,1,1.13.79,3.3,3.3,0,0,1,.64,1.2,5.5,5.5,0,0,1,.19,1.5v6.44a4.18,4.18,0,0,1-.57.13l-.87.15c-.33.05-.69.1-1.1.13s-.81,0-1.23,0a5.8,5.8,0,0,1-1.49-.18,3.45,3.45,0,0,1-1.19-.56,2.65,2.65,0,0,1-.79-1,3.41,3.41,0,0,1-.29-1.47,3,3,0,0,1,.32-1.43,2.58,2.58,0,0,1,.89-1,4,4,0,0,1,1.36-.57,7.76,7.76,0,0,1,1.72-.18l.58,0,.6.08.49.1a1.25,1.25,0,0,1,.29.09v-.63a7,7,0,0,0-.08-1,2.19,2.19,0,0,0-.35-.91,1.78,1.78,0,0,0-.75-.65,2.73,2.73,0,0,0-1.27-.25,6.38,6.38,0,0,0-1.68.16,7.19,7.19,0,0,0-.81.26l-.18-1.13a4.83,4.83,0,0,1,1-.3A9.07,9.07,0,0,1,251.2,122.71Zm.11,9.52a12.9,12.9,0,0,0,1.32,0,7.22,7.22,0,0,0,1-.13v-3.59a3.64,3.64,0,0,0-.69-.21,6.38,6.38,0,0,0-1.31-.11,7,7,0,0,0-1,.07,3.08,3.08,0,0,0-.95.29,2.15,2.15,0,0,0-.71.63,1.82,1.82,0,0,0-.27,1.05,2.13,2.13,0,0,0,.19,1,1.51,1.51,0,0,0,.53.64,2.41,2.41,0,0,0,.83.34A5.15,5.15,0,0,0,251.31,132.23Z"/><path class="cls-1" d="M258.15,123.3c.39-.11.9-.23,1.55-.36a12.11,12.11,0,0,1,2.37-.2,5,5,0,0,1,1.94.34,2.94,2.94,0,0,1,1.25,1,3.83,3.83,0,0,1,.66,1.49,8.78,8.78,0,0,1,.2,1.92v5.71h-1.29v-5.3a9.77,9.77,0,0,0-.14-1.84,3.1,3.1,0,0,0-.5-1.22,1.88,1.88,0,0,0-.91-.68,4,4,0,0,0-1.41-.21,10.18,10.18,0,0,0-1.57.1,3.79,3.79,0,0,0-.86.18v9h-1.29Z"/><path class="cls-1" d="M273.63,133.38a5.5,5.5,0,0,1-2.1-.38,4,4,0,0,1-1.51-1.08,4.7,4.7,0,0,1-.92-1.68,7,7,0,0,1-.31-2.16,7.19,7.19,0,0,1,.32-2.19,4.92,4.92,0,0,1,.94-1.7,4.13,4.13,0,0,1,1.48-1.1,4.76,4.76,0,0,1,2-.38,8.45,8.45,0,0,1,1.55.13,4,4,0,0,1,1.12.36l-.34,1.11a3.73,3.73,0,0,0-.89-.32,5.81,5.81,0,0,0-1.32-.12A3.13,3.13,0,0,0,271,125a4.84,4.84,0,0,0-.88,3.11,6.71,6.71,0,0,0,.2,1.67,3.49,3.49,0,0,0,.64,1.31,3.11,3.11,0,0,0,1.15.85,4.33,4.33,0,0,0,1.71.3,4.28,4.28,0,0,0,1.39-.19,5.18,5.18,0,0,0,.82-.32l.28,1.1a4.67,4.67,0,0,1-1.12.39A6.92,6.92,0,0,1,273.63,133.38Z"/><path class="cls-1" d="M280.07,119.86a1,1,0,0,1-.27.72,1,1,0,0,1-1.35,0,1.1,1.1,0,0,1,0-1.44,1,1,0,0,1,1.35,0A1,1,0,0,1,280.07,119.86Zm-.3,13.3h-1.28V122.94h1.28Z"/><path class="cls-1" d="M286.28,122.71A4.57,4.57,0,0,1,288,123a2.87,2.87,0,0,1,1.13.79,3,3,0,0,1,.64,1.2,5.5,5.5,0,0,1,.19,1.5v6.44a4.18,4.18,0,0,1-.57.13l-.87.15c-.33.05-.69.1-1.09.13s-.82,0-1.24,0a5.8,5.8,0,0,1-1.49-.18,3.45,3.45,0,0,1-1.19-.56,2.75,2.75,0,0,1-.79-1,3.41,3.41,0,0,1-.28-1.47,3,3,0,0,1,.31-1.43,2.67,2.67,0,0,1,.89-1,4,4,0,0,1,1.36-.57,7.76,7.76,0,0,1,1.72-.18l.59,0,.59.08.49.1a1.11,1.11,0,0,1,.29.09v-.63a7,7,0,0,0-.08-1,2.32,2.32,0,0,0-.34-.91,1.91,1.91,0,0,0-.75-.65,2.78,2.78,0,0,0-1.28-.25,6.38,6.38,0,0,0-1.68.16,7.19,7.19,0,0,0-.81.26l-.18-1.13a5,5,0,0,1,1-.3A9.14,9.14,0,0,1,286.28,122.71Zm.12,9.52a12.69,12.69,0,0,0,1.31,0,6.78,6.78,0,0,0,1-.13v-3.59a3.64,3.64,0,0,0-.69-.21,6.32,6.32,0,0,0-1.31-.11,6.75,6.75,0,0,0-1,.07,2.93,2.93,0,0,0-.95.29,2.06,2.06,0,0,0-.71.63,1.74,1.74,0,0,0-.28,1.05,2.13,2.13,0,0,0,.19,1,1.51,1.51,0,0,0,.53.64,2.5,2.5,0,0,0,.83.34A5.18,5.18,0,0,0,286.4,132.23Z"/><path class="cls-1" d="M295.82,133.34a4.56,4.56,0,0,1-1.13-.17,1.89,1.89,0,0,1-.81-.46,1.82,1.82,0,0,1-.5-.79,3.77,3.77,0,0,1-.16-1.21V118.06l1.28-.24v12.85a2.58,2.58,0,0,0,.09.76,1.09,1.09,0,0,0,.26.45,1,1,0,0,0,.47.25,6.69,6.69,0,0,0,.68.14Z"/><polygon class="cls-1" points="92.77 81.59 75.63 98.73 75.63 34.12 65.08 44.66 65.08 113.88 75.63 113.88 100.22 89.05 92.77 81.59"/><polygon class="cls-2" points="39.59 124.14 50.13 113.6 50.13 44.64 39.59 44.64 39.59 44.88 14.99 69.48 22.45 76.94 39.59 59.8 39.59 124.14"/><polygon class="cls-2" points="88.47 145.66 25.05 145.66 0 121.55 23.44 98.1 30.9 105.56 15.06 121.4 29.3 135.11 84.1 135.11 115.22 104 122.67 111.45 88.47 145.66"/><circle class="cls-2" cx="45.45" cy="23.12" r="4.1"/><path class="cls-2" d="M62.44,21.85A10.93,10.93,0,1,1,73.36,10.92,10.94,10.94,0,0,1,62.44,21.85Zm0-18a7.07,7.07,0,1,0,7.07,7.06A7.07,7.07,0,0,0,62.44,3.86Z"/><circle class="cls-2" cx="58.16" cy="32.88" r="2.92"/></g></g></svg>